<?xml version="1.0" standalone="no"?>
<!DOCTYPE svg PUBLIC "-//W3C//DTD SVG 20010904//EN" "http://www.w3.org/TR/2001/REC-SVG-20010904/DTD/svg10.dtd">
<svg version="1.0" xmlns="http://www.w3.org/2000/svg"
 width="510.000000pt" height="510.000000pt" viewBox="0 0 510.000000 510.000000"
 preserveAspectRatio="xMidYMid meet">
<metadata>
Created by potrace 1.11, written by Peter Selinger 2001-2013
</metadata>

  <!-- SAKLAR CSS DARK MODE -->
  <style>
    /* 1. Warna default saat browser dalam Mode Terang (Abu-abu gelap/Hitam) */
    .favicon-path { 
      fill: #333333; 
    }
    
    /* 2. Warna otomatis berubah saat browser dalam Mode Gelap (Putih) */
    @media (prefers-color-scheme: dark) {
      .favicon-path { 
        fill: #ffffff; 
      }
    }
  </style>

  <!-- KODE GAMBAR (Atribut fill="#000000" bawaan sudah dihapus dan diganti dengan class) -->
  <g transform="translate(0.000000,510.000000) scale(0.100000,-0.100000)" class="favicon-path" stroke="none">
    <path d="M5840 5635 l0 -405 115 0 c63 0 115 -2 115 -5 0 -22 -64 -184 -115
    -291 -261 -548 -724 -913 -1385 -1093 -69 -18 -264 -61 -280 -61 -4 0 -21 37
    -39 83 -57 150 -196 304 -342 377 -105 53 -200 75 -329 74 -205 -1 -352 -64
    -500 -213 -110 -111 -180 -244 -204 -393 -11 -61 -7 -61 -833 -65 l-733 -4
    -16 41 c-24 58 -102 125 -165 140 -129 31 -248 -20 -305 -131 -35 -69 -40
    -125 -19 -193 36 -115 132 -186 252 -186 106 0 183 48 233 143 l27 52 441 3
    c243 1 442 -1 442 -6 0 -4 -30 -20 -67 -36 -526 -224 -913 -570 -1161 -1036
    -52 -97 -142 -310 -142 -334 0 -11 -38 -14 -185 -18 -101 -2 -188 -7 -192 -12
    -4 -4 -9 -183 -11 -397 l-3 -389 30 -30 29 -30 365 0 365 0 31 26 31 26 0 376
    c-1 449 6 422 -115 430 -41 2 -75 8 -75 12 0 13 53 136 88 205 46 89 130 221
    195 305 59 77 219 239 300 304 293 234 674 400 1115 485 l94 18 10 -26 c40
    -96 63 -141 103 -196 236 -331 707 -397 1025 -144 124 98 224 258 253 401 l13
    63 784 3 785 2 18 -43 c22 -54 80 -115 132 -138 61 -28 163 -25 224 5 114 58
    169 178 138 299 -37 143 -177 223 -324 188 -61 -15 -141 -82 -168 -140 l-18
    -41 -521 1 -521 0 65 25 c702 264 1183 759 1414 1456 15 42 26 83 26 92 0 13
    23 16 156 18 l156 3 14 40 c18 54 20 633 2 712 l-13 53 -402 0 -403 0 0 -405z
    m558 3 l-3 -163 -155 0 -155 0 -3 163 -2 162 160 0 160 0 -2 -162z m-5383
    -3973 l0 -160 -160 0 -160 0 -3 150 c-1 82 0 155 3 162 3 11 39 13 162 11
    l158 -3 0 -160z"/>
  </g>
</svg>
